<?xml version="1.0" encoding="utf-8"?>
<!-- Generator: Adobe Illustrator 20.1.0, SVG Export Plug-In . SVG Version: 6.00 Build 0)  -->
<svg version="1.1" id="Layer_1" xmlns="http://www.w3.org/2000/svg" xmlns:xlink="http://www.w3.org/1999/xlink" x="0px" y="0px"
	 viewBox="0 0 512 512" style="enable-background:new 0 0 512 512;" xml:space="preserve">
<style type="text/css">
	.st0{fill:#50E3C2;}
</style>
<g>
	<g>
		<path class="st0" d="M509.2,415.2c-1.2-1.5-28.2-33.7-68.8-55.8c45.2-67.3,30.7-161,30-165.3c-0.9-5.7-5.8-10-11.6-10.1
			c-0.9,0-9.1-0.2-21.8,0.8c-2.9-43.6-16.2-78-16.8-79.6c-2.1-5.4-7.8-8.5-13.5-7.4c-2.1,0.4-48.3,9.3-91.9,37.1
			c-24.1-33.4-49.2-54.6-51.3-56.2c-4.5-3.7-10.9-3.7-15.4,0c-2,1.7-27.2,22.8-51.2,56.2c-43.6-27.8-89.8-36.7-91.9-37.1
			c-5.7-1.1-11.3,2.1-13.5,7.4c-0.6,1.6-13.9,35.9-16.8,79.6c-12.7-1-20.9-0.8-21.8-0.8c-5.8,0.2-10.7,4.4-11.6,10.1
			c-0.7,4.2-15.2,98,30,165.3C31,381.5,4,413.7,2.8,415.2c-3.7,4.5-3.7,10.9,0,15.4c2.6,3.1,64,76.2,142.2,76.2
			c44.6,0,83.9-23.6,111-46c27.2,22.4,66.4,46,111,46c78.2,0,139.6-73.1,142.2-76.2C512.9,426.1,512.9,419.7,509.2,415.2z
			 M447.8,208.3c2.4,26.9,4.6,100-34.8,147.7c0,0,0,0-0.1,0.1c-0.7,0.8-1.3,1.6-2,2.4c-0.9,1.1-1.9,2.1-2.9,3.2
			c-0.3,0.3-0.6,0.6-0.9,0.9c-0.7,0.8-1.5,1.5-2.2,2.2c-0.3,0.3-0.6,0.6-0.9,0.9c-1,1-2,1.9-3.1,2.9c0,0,0,0,0,0
			c-1,0.9-2.1,1.9-3.2,2.8c-0.3,0.3-0.6,0.5-1,0.8c-0.8,0.7-1.6,1.3-2.4,1.9c-0.3,0.3-0.7,0.5-1,0.8c-1.1,0.8-2.1,1.7-3.2,2.5
			c0,0-0.1,0.1-0.1,0.1c-1.1,0.8-2.2,1.6-3.4,2.4c-0.4,0.2-0.7,0.5-1.1,0.7c-0.8,0.6-1.7,1.1-2.5,1.6c-0.4,0.2-0.7,0.5-1.1,0.7
			c-1.1,0.7-2.2,1.4-3.2,2c-0.1,0.1-0.3,0.2-0.4,0.3c-1.1,0.7-2.2,1.3-3.4,1.9c-0.4,0.2-0.8,0.5-1.2,0.7c-0.8,0.5-1.7,0.9-2.5,1.3
			c-0.4,0.2-0.8,0.4-1.3,0.7c-1,0.5-2.1,1.1-3.1,1.6c-0.3,0.1-0.6,0.3-0.8,0.4c-1.1,0.5-2.1,1-3.2,1.5c-0.5,0.2-0.9,0.4-1.4,0.6
			c-0.8,0.4-1.6,0.7-2.4,1.1c-0.5,0.2-1,0.4-1.4,0.6c-1,0.4-1.9,0.8-2.9,1.2c-0.5,0.2-1,0.4-1.5,0.6c-1,0.4-1.9,0.8-2.9,1.1
			c-0.5,0.2-1,0.4-1.6,0.6c-0.7,0.3-1.5,0.5-2.2,0.8c-0.5,0.2-1.1,0.4-1.6,0.6c-0.8,0.3-1.6,0.6-2.5,0.8c-0.7,0.3-1.5,0.5-2.2,0.7
			c-0.8,0.3-1.6,0.5-2.4,0.8c-0.6,0.2-1.2,0.4-1.8,0.6c-0.6,0.2-1.3,0.4-1.9,0.6c-0.6,0.2-1.2,0.4-1.8,0.5c-0.6,0.2-1.3,0.4-1.9,0.5
			c-1,0.3-2,0.6-3.1,0.8c-0.6,0.2-1.2,0.3-1.7,0.5c-0.7,0.2-1.3,0.3-2,0.5c-0.5,0.1-1,0.3-1.5,0.4c-0.7,0.2-1.4,0.3-2,0.5
			c-0.4,0.1-0.9,0.2-1.3,0.3c-1.3,0.3-2.7,0.6-4,0.9c-0.3,0.1-0.7,0.1-1,0.2c-0.7,0.2-1.5,0.3-2.2,0.5c-0.4,0.1-0.7,0.1-1.1,0.2
			c-0.7,0.1-1.5,0.3-2.2,0.4c-0.2,0-0.4,0.1-0.7,0.1c-1.6,0.3-3.3,0.6-4.9,0.9c-0.1,0-0.1,0-0.2,0c-0.8,0.1-1.6,0.3-2.4,0.4
			c-0.2,0-0.4,0.1-0.6,0.1c-3.5,0.6-6.8,1-10,1.4c-0.1,0-0.1,0-0.2,0c-0.5,0.1-1,0.1-1.4,0.2c24.1-25.9,58.6-70.9,68.7-124.8
			c0,0,0,0,0,0c0.3-1.8,0.6-3.6,0.9-5.5c0.1-0.3,0.1-0.7,0.2-1c0.3-1.8,0.5-3.5,0.7-5.3c0-0.1,0-0.2,0-0.3c0.2-1.9,0.4-3.8,0.5-5.6
			c0-0.4,0.1-0.9,0.1-1.3c0.1-1.5,0.2-2.9,0.3-4.4c0-0.5,0-1,0.1-1.6c0.1-1.9,0.1-3.8,0.1-5.6c0-1.4,0-2.7-0.1-4.1
			c0-0.6,0-1.2-0.1-1.8c0-0.7-0.1-1.4-0.1-2.2c0-0.8-0.1-1.7-0.1-2.5c0-0.4-0.1-0.8-0.1-1.2c-0.5-6.2-1.2-12.2-2.3-18.2
			c0.5-0.2,1-0.4,1.5-0.7c0.3-0.1,0.6-0.3,0.9-0.4c1.6-0.6,3.1-1.3,4.7-1.9c0.3-0.1,0.5-0.2,0.8-0.3c1.4-0.5,2.7-1,4.1-1.5
			c0.3-0.1,0.7-0.2,1-0.4c1.4-0.5,2.9-1,4.3-1.5c0.5-0.2,1-0.3,1.6-0.5c1-0.3,2.1-0.6,3.1-1c0.9-0.3,1.9-0.6,2.8-0.9
			c0.8-0.2,1.5-0.4,2.3-0.7c0.9-0.3,1.8-0.5,2.7-0.7c0.2-0.1,0.4-0.1,0.6-0.2C412.4,210.9,435.2,208.9,447.8,208.3z M401.2,123.9
			c4,12.7,10.2,36.5,11.9,63.7c-18.3,2.8-40.3,7.8-62,16.8c-5.8-17.8-13.9-34.4-22.8-49.3C356.3,137.3,386.1,127.9,401.2,123.9z
			 M110.8,123.9c15.1,4,44.9,13.3,73,31.2c-9,14.9-17.1,31.4-22.8,49.3c-21.8-8.9-43.7-14-62-16.8
			C100.6,160.3,106.8,136.6,110.8,123.9z M64.2,208.3c12.6,0.6,35.4,2.5,60.3,9.2c0.2,0.1,0.4,0.1,0.7,0.2c0.9,0.2,1.8,0.5,2.7,0.7
			c0.8,0.2,1.6,0.5,2.4,0.7c0.9,0.3,1.8,0.5,2.7,0.8c1,0.3,2.1,0.6,3.1,1c0.5,0.2,1,0.3,1.5,0.5c1.4,0.5,2.9,1,4.3,1.5
			c0.3,0.1,0.7,0.2,1,0.4c1.4,0.5,2.7,1,4.1,1.5c0.3,0.1,0.5,0.2,0.8,0.3c1.6,0.6,3.1,1.2,4.7,1.9c0.3,0.1,0.6,0.3,0.9,0.4
			c0.5,0.2,1,0.4,1.5,0.7c-1.1,6-1.9,12-2.3,18.2c0,0.4-0.1,0.8-0.1,1.2c-0.1,0.8-0.1,1.7-0.1,2.5c0,0.7-0.1,1.4-0.1,2.1
			c0,0.6,0,1.2-0.1,1.8c0,1.4-0.1,2.8-0.1,4.1c0,1.9,0,3.8,0.1,5.6c0,0.5,0,1,0.1,1.6c0.1,1.5,0.2,2.9,0.3,4.4
			c0,0.4,0.1,0.9,0.1,1.3c0.2,1.9,0.3,3.8,0.6,5.7c0,0.1,0,0.2,0,0.3c0.2,1.8,0.5,3.6,0.7,5.4c0.1,0.3,0.1,0.7,0.2,1
			c8.8,56.3,44.8,103.5,69.7,130.3c-0.2,0-0.3,0-0.5-0.1c-0.7-0.1-1.4-0.2-2.2-0.3c-0.3,0-0.6-0.1-0.9-0.1c-1-0.1-2-0.3-3-0.4
			c-0.1,0-0.2,0-0.2,0c-1-0.1-1.9-0.3-2.9-0.4c-0.3-0.1-0.7-0.1-1-0.2c-0.8-0.1-1.5-0.2-2.3-0.4c-0.3-0.1-0.7-0.1-1.1-0.2
			c-1.1-0.2-2.1-0.4-3.2-0.6c-0.1,0-0.3,0-0.4-0.1c-1-0.2-2-0.4-3-0.6c-0.4-0.1-0.8-0.1-1.1-0.2c-0.8-0.2-1.6-0.3-2.4-0.5
			c-0.4-0.1-0.8-0.2-1.1-0.2c-1.1-0.2-2.2-0.5-3.3-0.7c-0.2,0-0.3-0.1-0.5-0.1c-1-0.2-2.1-0.5-3.1-0.7c-0.4-0.1-0.8-0.2-1.2-0.3
			c-0.8-0.2-1.7-0.4-2.5-0.6c-0.4-0.1-0.8-0.2-1.2-0.3c-1.1-0.3-2.3-0.6-3.4-0.9c-0.2-0.1-0.4-0.1-0.6-0.2c-1.1-0.3-2.1-0.6-3.2-0.9
			c-0.4-0.1-0.8-0.2-1.3-0.4c-0.8-0.3-1.7-0.5-2.5-0.8c-0.4-0.1-0.8-0.3-1.3-0.4c-1.1-0.4-2.3-0.7-3.4-1.1c-0.2-0.1-0.4-0.1-0.7-0.2
			c-1.1-0.4-2.2-0.7-3.3-1.1c-0.4-0.2-0.9-0.3-1.3-0.5c-0.9-0.3-1.7-0.6-2.6-0.9c-0.4-0.2-0.8-0.3-1.3-0.5c-1.2-0.4-2.3-0.9-3.5-1.4
			c-0.2-0.1-0.4-0.2-0.6-0.2c-1.1-0.5-2.2-0.9-3.3-1.4c-0.4-0.2-0.8-0.4-1.3-0.5c-0.9-0.4-1.7-0.8-2.6-1.1c-0.4-0.2-0.8-0.4-1.2-0.6
			c-1.2-0.5-2.3-1.1-3.5-1.6c-0.2-0.1-0.3-0.2-0.5-0.2c-1.1-0.5-2.2-1.1-3.3-1.7c-0.4-0.2-0.8-0.4-1.2-0.6c-0.9-0.5-1.7-0.9-2.5-1.4
			c-0.4-0.2-0.8-0.4-1.2-0.7c-1.1-0.6-2.3-1.3-3.4-2c-0.1-0.1-0.2-0.1-0.4-0.2c-1.1-0.7-2.2-1.3-3.3-2c-0.4-0.2-0.7-0.5-1.1-0.7
			c-0.8-0.5-1.7-1.1-2.5-1.6c-0.4-0.2-0.7-0.5-1.1-0.7c-1.1-0.8-2.2-1.5-3.3-2.3c-0.1,0-0.1-0.1-0.2-0.1c-1.1-0.8-2.1-1.6-3.2-2.4
			c-0.3-0.3-0.7-0.5-1-0.8c-0.8-0.6-1.6-1.3-2.4-1.9c-0.3-0.3-0.7-0.5-1-0.8c-1.1-0.9-2.1-1.8-3.1-2.7c0,0-0.1-0.1-0.1-0.1
			c-1-0.9-2-1.9-3-2.8c-0.3-0.3-0.6-0.6-0.9-0.9c-0.7-0.7-1.5-1.5-2.2-2.2c-0.3-0.3-0.6-0.6-0.9-0.9c-1-1-1.9-2.1-2.9-3.2
			c0,0,0,0,0,0c-0.7-0.8-1.3-1.5-2-2.3c0,0,0,0-0.1-0.1C59.5,308.3,61.8,235.2,64.2,208.3z M145,482.7c-53,0-99.4-42.1-116.6-59.8
			c10.4-10.7,31.6-30.5,58.4-44.3c0.3,0.3,0.5,0.6,0.8,0.8c0.3,0.3,0.6,0.6,0.9,1c0.6,0.6,1.1,1.1,1.7,1.7c0.3,0.3,0.6,0.5,0.8,0.8
			c0.7,0.7,1.4,1.4,2.1,2c0.1,0.1,0.3,0.3,0.4,0.4c0.9,0.8,1.8,1.6,2.7,2.4c0.1,0.1,0.2,0.2,0.4,0.3c0.8,0.7,1.6,1.4,2.3,2
			c0.3,0.2,0.5,0.4,0.8,0.6c0.7,0.5,1.3,1.1,2,1.6c0.3,0.2,0.6,0.5,0.9,0.7c0.7,0.5,1.3,1,2,1.5c0.3,0.2,0.6,0.4,0.9,0.7
			c0.7,0.5,1.4,1,2.1,1.6c0.2,0.2,0.5,0.4,0.7,0.5c0.9,0.6,1.7,1.2,2.6,1.8c0.1,0.1,0.2,0.1,0.3,0.2c2,1.4,4,2.7,6,4
			c0.2,0.1,0.4,0.2,0.6,0.3c0.8,0.5,1.6,1,2.4,1.5c0.2,0.1,0.5,0.3,0.7,0.4c0.8,0.5,1.6,0.9,2.3,1.4c0.2,0.1,0.5,0.3,0.7,0.4
			c0.8,0.5,1.6,0.9,2.5,1.4c0.2,0.1,0.4,0.2,0.6,0.3c1,0.5,2,1.1,3,1.6c0,0,0,0,0,0c2.1,1.1,4.3,2.2,6.4,3.2c0.1,0,0.2,0.1,0.3,0.1
			c0.9,0.5,1.9,0.9,2.9,1.3c0.2,0.1,0.4,0.2,0.5,0.2c0.9,0.4,1.8,0.8,2.6,1.2c0.2,0.1,0.4,0.2,0.6,0.3c0.9,0.4,1.8,0.8,2.7,1.2
			c0.1,0.1,0.3,0.1,0.4,0.2c4.3,1.8,8.6,3.4,12.8,4.9c0.1,0,0.2,0.1,0.4,0.1c0.9,0.3,1.9,0.6,2.8,1c0.1,0,0.3,0.1,0.4,0.1
			c0.9,0.3,1.9,0.6,2.8,0.9c0.1,0,0.2,0.1,0.3,0.1c4.3,1.4,8.5,2.6,12.7,3.7c0.1,0,0.2,0,0.3,0.1c0.9,0.2,1.9,0.5,2.8,0.7
			c0.1,0,0.3,0.1,0.4,0.1c0.9,0.2,1.8,0.5,2.7,0.7c0.1,0,0.2,0.1,0.3,0.1c4.1,1,8.1,1.9,12,2.6c0.1,0,0.2,0,0.3,0.1
			c0.9,0.2,1.7,0.3,2.6,0.5c0.1,0,0.3,0.1,0.4,0.1c0.8,0.2,1.6,0.3,2.4,0.4c0.1,0,0.3,0,0.4,0.1c0.9,0.2,1.7,0.3,2.6,0.4
			c0,0,0.1,0,0.1,0c2.8,0.5,5.5,0.9,8.1,1.2c0.1,0,0.3,0,0.4,0.1c0.7,0.1,1.4,0.2,2.1,0.3c0.2,0,0.4,0,0.5,0.1
			c0.7,0.1,1.3,0.2,2,0.2c0.2,0,0.4,0,0.6,0.1c0.7,0.1,1.3,0.2,2,0.2c0.2,0,0.3,0,0.5,0.1c1.6,0.2,3.2,0.3,4.7,0.5
			c0.1,0,0.2,0,0.3,0c0.6,0.1,1.3,0.1,1.9,0.2c0.2,0,0.5,0,0.7,0.1c0.5,0,1,0.1,1.4,0.1c0.2,0,0.5,0,0.7,0.1c0.4,0,0.9,0.1,1.3,0.1
			c0.3,0,0.5,0,0.7,0.1c0.4,0,0.8,0.1,1.2,0.1c0.2,0,0.5,0,0.7,0.1c0.4,0,0.8,0.1,1.3,0.1c0.2,0,0.4,0,0.6,0c0.6,0,1.2,0.1,1.7,0.1
			c0.3,0,0.5,0,0.8,0c0.3,0,0.6,0,0.9,0c0.3,0,0.6,0,0.9,0c0.2,0,0.5,0,0.7,0c0.3,0,0.6,0,0.9,0c0.1,0,0.2,0,0.3,0
			C220,459.8,184.4,482.7,145,482.7z M256,196.6c-6.7,0-12.1,5.4-12.1,12.1v190.8c-0.2-0.2-0.4-0.4-0.6-0.6
			c-0.1-0.1-0.1-0.1-0.2-0.2c-0.5-0.6-1.1-1.1-1.6-1.7c0,0-0.1-0.1-0.1-0.1c-20.6-22.3-49.7-59.9-60.8-103.8c0-0.1,0-0.1-0.1-0.2
			c-0.3-1.1-0.5-2.2-0.8-3.3c0-0.2-0.1-0.4-0.1-0.7c-0.2-1-0.4-2-0.6-3c-0.1-0.3-0.1-0.5-0.2-0.8c-0.2-1-0.4-2.1-0.6-3.2
			c0-0.2-0.1-0.3-0.1-0.5c-0.4-2.5-0.8-4.9-1.1-7.4c0-0.3-0.1-0.6-0.1-1c-0.1-0.9-0.2-1.8-0.3-2.7c0-0.4-0.1-0.8-0.1-1.2
			c-0.1-0.8-0.1-1.6-0.2-2.5c0-0.4-0.1-0.9-0.1-1.3c0-0.9-0.1-1.7-0.1-2.6c0-0.4,0-0.8,0-1.2c0-1.2-0.1-2.5-0.1-3.7
			c0-1.3,0-2.6,0.1-3.9c0-0.3,0-0.7,0-1c0-1,0.1-2,0.1-3c0-0.3,0-0.6,0.1-0.9c0.1-1.2,0.2-2.3,0.3-3.5c0-0.1,0-0.2,0-0.4
			c0.3-2.7,0.6-5.4,1-8.1c0-0.2,0.1-0.5,0.1-0.7c0.2-1.1,0.4-2.2,0.6-3.3c0.1-0.3,0.1-0.6,0.2-0.9c0.2-1.3,0.5-2.5,0.8-3.8
			c0.1-0.4,0.2-0.9,0.3-1.3c0.2-0.8,0.4-1.6,0.5-2.4c0.2-0.8,0.4-1.5,0.6-2.3c0.1-0.3,0.2-0.6,0.2-0.9
			c14.4-55.5,57.4-100.6,75-117.4c12.7,12,38.3,38.6,57.1,73.1c0.1,0.1,0.1,0.2,0.2,0.4c0.4,0.8,0.9,1.6,1.3,2.4
			c0.2,0.4,0.4,0.7,0.5,1.1c0.6,1.1,1.1,2.2,1.7,3.4c0.3,0.6,0.6,1.3,0.9,1.9c0.3,0.5,0.5,1.1,0.8,1.6c0.4,0.9,0.8,1.7,1.2,2.6
			c0.1,0.3,0.3,0.6,0.4,0.9c0.6,1.2,1.1,2.4,1.6,3.6c0.1,0.2,0.2,0.5,0.3,0.7c0.5,1.1,1,2.3,1.4,3.4c0.1,0.1,0.1,0.3,0.2,0.4
			c3.3,8.1,5.9,16.2,7.8,24.2v0c2.1,8.5,3.4,17,3.9,25.3c0,0.3,0,0.5,0,0.8c0.1,1.1,0.1,2.1,0.1,3.1c0,0.3,0,0.6,0,0.9
			c0,1.3,0.1,2.6,0.1,3.9c0,1.2,0,2.5-0.1,3.7c0,0.4,0,0.8,0,1.2c0,0.9-0.1,1.7-0.1,2.6c0,0.4-0.1,0.9-0.1,1.3
			c-0.1,0.8-0.1,1.6-0.2,2.4c0,0.4-0.1,0.8-0.1,1.3c-0.1,0.9-0.2,1.8-0.3,2.7c0,0.3-0.1,0.7-0.1,1c-0.3,2.5-0.7,4.9-1.1,7.4
			c0,0.2-0.1,0.4-0.1,0.5c-0.2,1-0.4,2.1-0.6,3.1c-0.1,0.3-0.1,0.5-0.2,0.8c-0.2,1-0.4,2-0.6,2.9c-0.1,0.2-0.1,0.5-0.2,0.7
			c-0.2,1.1-0.5,2.2-0.8,3.3c0,0.1,0,0.2-0.1,0.3c-10.8,42.7-38.6,79.4-59,101.9c0,0,0,0-0.1,0.1c-0.5,0.6-1.1,1.2-1.6,1.8
			c-0.1,0.1-0.2,0.2-0.3,0.3c-0.5,0.5-0.9,1-1.4,1.5c-0.1,0.1-0.2,0.3-0.4,0.4c-0.2,0.2-0.3,0.4-0.5,0.5V208.7
			C268.1,202,262.7,196.6,256,196.6z M367,482.7c-39.4,0-75.1-22.8-99.1-43.4c0.1,0,0.2,0,0.3,0c0.3,0,0.6,0,0.9,0
			c0.2,0,0.5,0,0.7,0c0.3,0,0.6,0,0.9,0c0.2,0,0.5,0,0.7,0c0.4,0,0.7,0,1.1-0.1c0.5,0,1-0.1,1.5-0.1c0.3,0,0.6,0,0.9-0.1
			c0.3,0,0.7,0,1-0.1c0.3,0,0.6,0,0.9-0.1c0.4,0,0.7-0.1,1.1-0.1c0.3,0,0.6,0,0.9-0.1c0.4,0,0.7-0.1,1.1-0.1c0.3,0,0.6-0.1,0.9-0.1
			c0.4,0,0.8-0.1,1.3-0.1c0.3,0,0.6,0,0.8-0.1c0.5,0,1-0.1,1.6-0.1c0.2,0,0.4,0,0.6-0.1c0.7-0.1,1.5-0.1,2.2-0.2c0.1,0,0.3,0,0.4,0
			c0.6-0.1,1.3-0.1,1.9-0.2c0.2,0,0.5-0.1,0.7-0.1c0.6-0.1,1.1-0.1,1.7-0.2c0.3,0,0.5-0.1,0.8-0.1c0.6-0.1,1.1-0.1,1.7-0.2
			c0.3,0,0.5-0.1,0.8-0.1c0.6-0.1,1.2-0.2,1.8-0.2c0.2,0,0.5-0.1,0.7-0.1c0.7-0.1,1.5-0.2,2.2-0.3c0.1,0,0.2,0,0.4-0.1
			c1.8-0.3,3.6-0.5,5.4-0.8c0.2,0,0.3-0.1,0.5-0.1c0.7-0.1,1.5-0.2,2.2-0.4c0.2,0,0.5-0.1,0.7-0.1c0.7-0.1,1.4-0.3,2.1-0.4
			c0.2,0,0.5-0.1,0.7-0.1c0.7-0.1,1.5-0.3,2.2-0.4c0.2,0,0.4-0.1,0.6-0.1c0.9-0.2,1.8-0.4,2.7-0.5c0.1,0,0.1,0,0.2,0
			c2-0.4,4-0.8,6-1.3c0.1,0,0.2,0,0.3-0.1c0.9-0.2,1.8-0.4,2.6-0.6c0.2,0,0.4-0.1,0.6-0.1c0.8-0.2,1.6-0.4,2.5-0.6
			c0.2-0.1,0.4-0.1,0.6-0.2c0.8-0.2,1.7-0.4,2.5-0.6c0.2,0,0.4-0.1,0.5-0.1c1-0.3,1.9-0.5,2.9-0.8c0,0,0.1,0,0.1,0
			c2.1-0.6,4.2-1.2,6.4-1.9c0.1,0,0.1,0,0.2-0.1c1-0.3,1.9-0.6,2.9-0.9c0.2-0.1,0.4-0.1,0.5-0.2c0.9-0.3,1.7-0.6,2.6-0.9
			c0.2-0.1,0.4-0.1,0.6-0.2c0.9-0.3,1.7-0.6,2.6-0.9c0.2-0.1,0.4-0.1,0.6-0.2c1-0.3,1.9-0.7,2.9-1c0.1,0,0.1-0.1,0.2-0.1
			c2.2-0.8,4.3-1.6,6.5-2.5c0,0,0.1,0,0.1,0c1-0.4,2-0.8,3-1.2c0.2-0.1,0.4-0.2,0.6-0.2c0.9-0.4,1.7-0.7,2.6-1.1
			c0.2-0.1,0.5-0.2,0.7-0.3c0.8-0.4,1.7-0.7,2.5-1.1c0.2-0.1,0.4-0.2,0.6-0.3c0.9-0.4,1.8-0.8,2.7-1.3c0.1-0.1,0.3-0.1,0.4-0.2
			c2.1-1,4.2-2.1,6.4-3.2c0,0,0.1,0,0.1-0.1c1-0.5,1.9-1,2.9-1.6c0.2-0.1,0.4-0.2,0.6-0.3c0.8-0.4,1.6-0.9,2.4-1.4
			c0.3-0.1,0.5-0.3,0.8-0.4c0.8-0.4,1.5-0.9,2.3-1.4c0.2-0.1,0.5-0.3,0.8-0.5c0.8-0.5,1.6-1,2.4-1.5c0.2-0.1,0.4-0.2,0.6-0.4
			c2-1.3,4-2.6,6-4c0.1-0.1,0.1-0.1,0.2-0.2c0.9-0.6,1.8-1.2,2.6-1.9c0.2-0.2,0.5-0.3,0.7-0.5c0.7-0.5,1.4-1.1,2.1-1.6
			c0.3-0.2,0.6-0.4,0.8-0.6c0.7-0.5,1.3-1,2-1.6c0.3-0.2,0.6-0.4,0.8-0.7c0.7-0.5,1.4-1.1,2-1.7c0.2-0.2,0.5-0.4,0.7-0.6
			c0.8-0.7,1.6-1.4,2.4-2.1c0.1-0.1,0.2-0.2,0.3-0.2c0.9-0.8,1.8-1.6,2.7-2.5c0.1-0.1,0.2-0.2,0.4-0.3c0.8-0.7,1.5-1.4,2.2-2.1
			c0.3-0.3,0.5-0.5,0.8-0.8c0.6-0.6,1.2-1.2,1.8-1.8c0.3-0.3,0.6-0.6,0.9-0.9c0.3-0.3,0.6-0.6,0.8-0.9c26.9,13.8,48,33.6,58.4,44.3
			C466.5,440.6,420.2,482.7,367,482.7z"/>
	</g>
</g>
<g>
	<g>
		<path class="st0" d="M264.5,163.6c-0.6-0.6-1.2-1.1-1.8-1.5c-0.7-0.4-1.4-0.8-2.1-1.1c-0.7-0.3-1.5-0.5-2.3-0.7
			c-1.5-0.3-3.1-0.3-4.7,0c-0.8,0.2-1.5,0.4-2.3,0.7c-0.7,0.3-1.4,0.7-2.1,1.1c-0.7,0.4-1.3,0.9-1.8,1.5c-2.2,2.2-3.5,5.4-3.5,8.5
			c0,0.8,0.1,1.6,0.2,2.4c0.1,0.8,0.4,1.5,0.7,2.3s0.7,1.4,1.1,2.1c0.4,0.7,0.9,1.3,1.5,1.8c0.6,0.6,1.2,1,1.8,1.5
			c0.7,0.4,1.4,0.8,2.1,1.1c0.7,0.3,1.5,0.5,2.3,0.7s1.6,0.2,2.4,0.2c0.8,0,1.6-0.1,2.4-0.2s1.5-0.4,2.3-0.7
			c0.7-0.3,1.4-0.7,2.1-1.1c0.7-0.4,1.3-0.9,1.8-1.5c0.6-0.6,1.1-1.2,1.5-1.8c0.4-0.7,0.8-1.4,1.1-2.1s0.5-1.5,0.7-2.3
			c0.2-0.8,0.2-1.6,0.2-2.4C268.1,169,266.8,165.9,264.5,163.6z"/>
	</g>
</g>
<g>
	<g>
		<path class="st0" d="M256,5.2c-6.7,0-12.1,5.4-12.1,12.1v21.5c0,6.7,5.4,12.1,12.1,12.1c6.7,0,12.1-5.4,12.1-12.1V17.3
			C268.1,10.6,262.7,5.2,256,5.2z"/>
	</g>
</g>
<g>
	<g>
		<path class="st0" d="M348.2,36.2c-4.7-4.7-12.3-4.7-17,0L316,51.5c-4.7,4.7-4.7,12.3,0,17c2.4,2.4,5.4,3.5,8.5,3.5
			c3.1,0,6.2-1.2,8.5-3.5l15.2-15.2C352.9,48.6,352.9,41,348.2,36.2z"/>
	</g>
</g>
<g>
	<g>
		<path class="st0" d="M196.1,51.5l-15.2-15.2c-4.7-4.7-12.3-4.7-17,0c-4.7,4.7-4.7,12.3,0,17L179,68.5c2.4,2.4,5.4,3.5,8.5,3.5
			s6.2-1.2,8.5-3.5C200.8,63.8,200.8,56.2,196.1,51.5z"/>
	</g>
</g>
</svg>
